<svg width="870" height="488" viewBox="0 0 870 488" fill="none" xmlns="http://www.w3.org/2000/svg">
<path fill-rule="evenodd" clip-rule="evenodd" d="M76.1007 0.487826C76.1007 0.75613 75.4422 0.975652 74.6372 0.975652C73.8323 0.975652 73.1738 1.19517 73.1738 1.46348C73.1738 1.73178 72.783 1.9513 72.3059 1.9513C71.8283 1.9513 71.1215 2.39035 70.7346 2.92696C70.3478 3.46357 69.6409 3.90261 69.1633 3.90261C68.6862 3.90261 68.2955 4.12213 68.2955 4.39043C68.2955 4.65874 67.8565 4.87826 67.3198 4.87826C66.7564 4.87826 66.3442 5.20364 66.3442 5.64805C66.3442 6.07197 65.4661 7.26178 64.3929 8.29304C63.1055 9.52968 62.4416 10.5961 62.4416 11.4259C62.4416 12.1176 62.2221 12.6835 61.9538 12.6835C61.6752 12.6835 61.4659 14.147 61.4659 16.0983C61.4659 18.0496 61.2567 19.513 60.9781 19.513C60.2166 19.513 60.3104 396.852 61.0719 397.106C61.3919 397.212 48.0011 410.949 31.3145 427.633C7.32861 451.614 0.975652 458.222 0.975652 459.188C0.975652 459.86 0.75613 460.411 0.487826 460.411C0.182935 460.411 0 463.338 0 468.216C0 473.094 0.182935 476.021 0.487826 476.021C0.75613 476.021 0.975652 476.46 0.975652 476.997C0.975652 477.533 1.19517 477.972 1.46348 477.972C1.73178 477.972 1.9513 478.363 1.9513 478.84C1.9513 479.318 2.39035 480.025 2.92696 480.412C3.46357 480.798 3.90261 481.411 3.90261 481.774C3.90261 482.583 5.09193 483.826 5.86708 483.826C6.18124 483.826 7.05348 484.485 7.80522 485.29C8.94088 486.505 9.55212 486.753 11.4156 486.753C12.6498 486.753 13.6591 486.973 13.6591 487.241C13.6591 487.566 103.257 487.729 281.476 487.729C459.695 487.729 857.698 487.566 857.698 487.241C857.698 486.973 858.137 486.753 858.673 486.753C859.21 486.753 859.649 486.534 859.649 486.265C859.649 485.997 860.088 485.778 860.625 485.778C861.161 485.778 861.6 485.558 861.6 485.29C861.6 485.022 862.155 484.802 862.833 484.802C863.642 484.802 864.815 484.052 866.247 482.619C868.007 480.86 868.43 480.104 868.43 478.717C868.43 477.771 868.649 476.997 868.918 476.997C869.226 476.997 869.406 473.5 869.406 467.483V457.969L846.723 435.286C834.247 422.811 823.819 412.604 823.547 412.604C822.72 412.604 807.71 397.314 808.333 397.106C809.095 396.852 809.189 12.6835 808.427 12.6835C808.159 12.6835 807.939 12.2444 807.939 11.7078C807.939 11.1712 807.72 10.7322 807.451 10.7322C807.183 10.7322 806.964 10.399 806.964 9.99116C806.964 9.02673 800.864 2.92696 799.899 2.92696C799.492 2.92696 799.158 2.70743 799.158 2.43913C799.158 2.17083 798.5 1.9513 797.695 1.9513C796.89 1.9513 796.231 1.73178 796.231 1.46348C796.231 1.19517 795.573 0.975652 794.768 0.975652C793.963 0.975652 793.304 0.75613 793.304 0.487826C793.304 0.163422 724.846 0 588.905 0C452.964 0 76.1007 0.163422 76.1007 0.487826Z" fill="#157F3F"/>
<path fill-rule="evenodd" clip-rule="evenodd" d="M433.85 7.64099C433.85 7.99353 433.274 8.28198 432.569 8.28198C431.715 8.28198 431.288 8.70952 431.288 9.56395C431.288 10.269 431 10.8459 430.648 10.8459C430.295 10.8459 430.007 12.4452 430.007 14.4002C430.007 17.3199 430.288 18.2365 431.58 19.5281C432.444 20.3935 433.597 21.1017 434.142 21.1017C434.686 21.1017 435.132 21.3902 435.132 21.7427C435.132 22.0953 436.15 22.3837 437.395 22.3837C439.123 22.3837 440.183 21.8587 441.879 20.1614C443.926 18.1135 444.099 17.6346 444.099 14.0432C444.099 10.7607 443.851 9.89854 442.527 8.57362C441.236 7.28139 440.32 7 437.402 7C435.449 7 433.85 7.28844 433.85 7.64099ZM85.2299 405.41C83.3806 407.315 81.867 409.184 81.867 409.564C81.867 409.943 80.1375 411.951 78.0236 414.028C75.9098 416.104 74.1803 418.125 74.1803 418.521C74.1803 418.916 72.7391 420.643 70.9775 422.36C69.216 424.078 67.7747 425.87 67.7747 426.344C67.7747 426.818 67.1982 427.621 66.4936 428.129C64.3881 429.648 64.8 432.887 67.4333 435.522C68.6542 436.744 70.0955 437.744 70.6361 437.744C71.1761 437.744 71.6181 438.033 71.6181 438.385C71.6181 438.81 105.995 439.026 173.466 439.026H335.315V440.949C335.315 442.007 335.027 442.872 334.674 442.872C333.5 442.872 334.014 444.834 335.606 446.426L337.178 448L464.633 446.942H539.637L541.209 445.369C542.801 443.776 543.315 441.814 542.141 441.814C541.789 441.814 541.5 440.949 541.5 439.892V437.969H696.989C764.888 437.969 799.478 437.753 799.478 437.328C799.478 436.975 799.931 436.687 800.484 436.687C801.779 436.687 803.321 435.143 803.321 433.848C803.321 433.294 803.61 432.841 803.962 432.841C804.314 432.841 804.602 431.975 804.602 430.918C804.602 429.86 804.314 428.995 803.962 428.995C803.61 428.995 803.321 428.418 803.321 427.713C803.321 427.008 803.033 426.431 802.681 426.431C802.329 426.431 802.04 425.979 802.04 425.428C802.04 424.876 800.599 423.02 798.837 421.303C797.076 419.586 795.635 417.855 795.635 417.457C795.635 417.059 794.193 415.328 792.432 413.611C790.67 411.894 789.229 410.177 789.229 409.795C789.229 409.413 787.361 407.231 785.078 404.945L780.926 400.791L464.485 400.839L88.5928 401.944L85.2299 405.41Z" fill="#105F2F"/>
<path fill-rule="evenodd" clip-rule="evenodd" d="M3.44824 464.376C3.44824 466.226 5.18539 468.501 6.59716 468.501C7.01181 468.501 7.35085 468.72 7.35085 468.989C7.35085 469.313 45.7267 469.476 121.502 469.476C224.137 469.476 357.653 469.553 357.653 470.23C357.653 470.645 358.193 471.523 358.851 472.181L360.048 473.379L469.989 471.732H516.377L517.574 470.535C518.232 469.876 518.771 468.998 518.771 468.583C518.771 467.906 644.591 468.75 747.466 468.75H866.883L868.08 467.552C869.001 466.632 869.278 465.841 869.278 464.137C869.278 461.718 868.897 461.394 867.814 462.896C867.112 463.869 747.274 462.951 469.989 462.951C47.1504 464.598 6.58935 464.596 5.88737 463.623C5.50053 463.086 4.79367 462.647 4.31608 462.647C3.64727 462.647 3.44824 463.044 3.44824 464.376ZM54.1822 474.843C54.1822 475.111 53.8373 475.33 53.4158 475.33C52.1948 475.33 51.2552 476.598 51.2552 478.245C51.2552 480.263 53.146 482.16 55.1578 482.16C57.0213 482.16 59.0604 480.26 59.0604 478.523C59.0604 477.84 58.8409 477.282 58.5726 477.282C58.3043 477.282 58.0848 476.843 58.0848 476.306C58.0848 475.656 57.7594 475.33 57.1091 475.33C56.5725 475.33 56.1335 475.111 56.1335 474.843C56.1335 474.574 55.6944 474.355 55.1578 474.355C54.6212 474.355 54.1822 474.574 54.1822 474.843ZM68.8169 474.843C68.8169 475.111 68.3779 475.33 67.8413 475.33C67.191 475.33 66.8656 475.656 66.8656 476.306C66.8656 476.843 66.6461 477.282 66.3778 477.282C65.4261 477.282 65.908 479.783 67.0876 480.962C68.0076 481.883 68.7984 482.16 70.5024 482.16C72.3942 482.16 72.7195 482.017 72.7195 481.184C72.7195 480.648 72.9391 480.209 73.2074 480.209C74.2396 480.209 73.7157 476.77 72.4976 475.552C71.3185 474.373 68.8169 473.891 68.8169 474.843ZM84.4274 474.843C84.4274 475.111 84.0825 475.33 83.661 475.33C82.44 475.33 81.5004 476.598 81.5004 478.245C81.5004 480.263 83.3912 482.16 85.403 482.16C87.2665 482.16 89.3056 480.26 89.3056 478.523C89.3056 477.84 89.0861 477.282 88.8178 477.282C88.5495 477.282 88.33 476.843 88.33 476.306C88.33 475.656 88.0046 475.33 87.3543 475.33C86.8177 475.33 86.3787 475.111 86.3787 474.843C86.3787 474.574 85.9396 474.355 85.403 474.355C84.8664 474.355 84.4274 474.574 84.4274 474.843Z" fill="#034236"/>
</svg>
