<?xml version="1.0" encoding="utf-8"?>
<!-- Generator: Adobe Illustrator 16.0.0, SVG Export Plug-In . SVG Version: 6.00 Build 0)  -->
<!DOCTYPE svg PUBLIC "-//W3C//DTD SVG 1.1//EN" "http://www.w3.org/Graphics/SVG/1.1/DTD/svg11.dtd">
<svg version="1.1" id="Layer_1" xmlns="http://www.w3.org/2000/svg" xmlns:xlink="http://www.w3.org/1999/xlink" x="0px" y="0px"
	 width="530px" height="191px" viewBox="0 0 530 191" enable-background="new 0 0 530 191" xml:space="preserve">
<g>
	<path fill-rule="evenodd" clip-rule="evenodd" fill="#FFFFFF" d="M273.488,129.689c0,16.961,0.004,33.921-0.005,50.881
		c-0.001,2.706,0.343,2.379-2.312,2.386c-5.204,0.012-10.408,0.005-15.611,0c-0.511,0-1.022-0.032-1.531-0.078
		c-0.093-0.008-0.229-0.142-0.248-0.236c-0.062-0.311-0.101-0.629-0.108-0.945c-0.051-2.248-0.088-4.495-0.143-6.742
		c-0.006-0.241-0.091-0.48-0.157-0.716c-0.01-0.035-0.142-0.079-0.171-0.058c-0.146,0.107-0.297,0.22-0.408,0.36
		c-0.717,0.905-1.378,1.86-2.144,2.722c-3.123,3.511-6.997,5.765-11.555,6.905c-2.771,0.693-5.574,0.853-8.409,0.792
		c-2.189-0.048-4.348-0.269-6.493-0.752c-6.277-1.414-11.566-4.493-15.866-9.269c-2.824-3.136-4.929-6.722-6.536-10.608
		c-1.502-3.635-2.538-7.398-3.132-11.289c-0.701-4.59-0.897-9.201-0.631-13.83c0.278-4.825,1.061-9.567,2.605-14.163
		c1.36-4.047,3.24-7.828,5.895-11.191c4.39-5.564,10.026-9.102,17.02-10.431c3.825-0.727,7.666-0.831,11.5-0.201
		c5.203,0.854,9.76,3.09,13.638,6.681c1.132,1.05,2.181,2.178,3.155,3.376c0.283,0.348,0.587,0.678,0.889,1.009
		c0.025,0.028,0.11,0.013,0.164,0.002c0.062-0.013,0.154-0.026,0.175-0.068c0.054-0.112,0.103-0.239,0.106-0.361
		c0.016-0.643,0.021-1.284,0.021-1.927c0.001-11.114,0-22.229,0.004-33.343c0-0.64,0.042-1.28,0.091-1.918
		c0.008-0.1,0.145-0.232,0.25-0.271c0.176-0.065,0.375-0.089,0.565-0.092c0.835-0.01,1.67-0.008,2.505-0.008
		c4.883,0,9.765-0.002,14.648,0.002c0.577,0,1.154,0.027,1.731,0.048c0.211,0.008,0.466,0.3,0.475,0.528
		c0.007,0.192,0.019,0.384,0.02,0.577c0.003,0.514,0.002,1.028,0.002,1.542C273.488,95.897,273.488,112.793,273.488,129.689z
		 M218.84,144.146c-0.041,2.383,0.211,5.764,1.049,9.084c0.892,3.536,2.447,6.74,4.833,9.52c3.16,3.682,7.18,5.53,12.018,5.477
		c3.868-0.043,7.276-1.384,10.15-4.002c1.969-1.795,3.505-3.91,4.652-6.313c0.889-1.864,1.462-3.826,1.891-5.842
		c0.322-1.517,0.395-3.053,0.482-4.589c0.063-1.087,0.07-2.178,0.054-3.267c-0.015-0.962-0.096-1.922-0.151-2.883
		c-0.2-3.411-0.754-6.754-1.903-9.984c-0.715-2.009-1.667-3.888-3.01-5.556c-2.093-2.602-4.781-4.241-8.041-4.919
		c-2.994-0.622-6.006-0.595-8.981,0.069c-3.793,0.849-6.831,2.876-8.97,6.152c-0.559,0.855-1.045,1.767-1.48,2.692
		c-1.016,2.163-1.575,4.468-1.965,6.816C219.108,138.759,218.962,140.935,218.84,144.146z"/>
	<path fill-rule="evenodd" clip-rule="evenodd" fill="#FFFFFF" d="M355.675,129.639c0,17.017,0.001,34.034-0.003,51.051
		c0,0.64-0.031,1.281-0.074,1.92c-0.006,0.096-0.144,0.209-0.247,0.265c-0.104,0.057-0.242,0.066-0.366,0.072
		c-0.257,0.013-0.514,0.013-0.771,0.013c-5.587,0-11.173,0.001-16.76-0.002c-0.384,0-0.774,0-1.149-0.067
		c-0.14-0.026-0.316-0.232-0.349-0.383c-0.065-0.31-0.052-0.637-0.059-0.957c-0.045-2.376-0.085-4.751-0.142-7.125
		c-0.002-0.088-0.146-0.184-0.241-0.253c-0.031-0.022-0.134,0.006-0.17,0.044c-0.174,0.182-0.345,0.367-0.499,0.565
		c-0.512,0.658-0.993,1.343-1.527,1.982c-1.366,1.635-2.937,3.048-4.711,4.233c-2.71,1.811-5.696,2.906-8.882,3.531
		c-1.904,0.374-3.83,0.46-5.751,0.459c-2.568-0.001-5.119-0.215-7.644-0.797c-5.521-1.271-10.313-3.837-14.364-7.79
		c-3.167-3.089-5.545-6.724-7.355-10.74c-1.99-4.418-3.25-9.036-3.894-13.845c-0.315-2.362-0.432-4.731-0.523-7.1
		c-0.133-3.403,0.101-6.796,0.536-10.179c0.443-3.452,1.22-6.819,2.361-10.103c1.404-4.032,3.359-7.771,6.079-11.081
		c4.317-5.255,9.781-8.616,16.485-9.893c3.362-0.641,6.737-0.813,10.154-0.419c3.956,0.455,7.634,1.658,11.018,3.75
		c2.423,1.496,4.539,3.355,6.407,5.498c0.38,0.436,0.71,0.917,1.112,1.328c0.286,0.293,0.352,0.869,0.944,0.803
		c0.338-0.384,0.163-0.846,0.163-1.266c0.011-11.495,0.004-22.989,0.013-34.483c0.002-2.649-0.317-2.36,2.354-2.365
		c5.201-0.008,10.403-0.003,15.604-0.001c0.578,0,1.156,0.017,1.733,0.032c0.188,0.005,0.479,0.318,0.491,0.518
		c0.013,0.192,0.022,0.384,0.023,0.576c0.004,0.514,0.002,1.027,0.002,1.542C355.675,95.862,355.675,112.75,355.675,129.639z
		 M301.097,144.056c0.038,1.025,0.072,2.052,0.114,3.076c0.116,2.84,0.649,5.604,1.576,8.286c1.104,3.199,2.803,6.036,5.214,8.434
		c2.819,2.805,6.244,4.23,10.182,4.366c3.933,0.136,7.464-1.032,10.483-3.606c2.905-2.477,4.884-5.575,6.103-9.178
		c0.934-2.759,1.348-5.605,1.431-8.506c0.075-2.633-0.045-5.262-0.34-7.879c-0.31-2.747-0.859-5.444-1.839-8.043
		c-0.591-1.568-1.33-3.057-2.295-4.428c-2.169-3.081-5.103-5.005-8.797-5.738c-2.998-0.597-6.006-0.546-8.979,0.139
		c-3.229,0.743-5.919,2.407-8.006,5.004c-0.971,1.207-1.742,2.536-2.358,3.954c-1.004,2.309-1.592,4.731-1.972,7.213
		C301.263,139.439,301.158,141.744,301.097,144.056z"/>
	<path fill-rule="evenodd" clip-rule="evenodd" fill="#FFFFFF" d="M432.117,155.256c0,8.543,0.002,17.086-0.004,25.63
		c0,0.573-0.044,1.147-0.095,1.72c-0.009,0.095-0.146,0.237-0.244,0.256c-0.312,0.059-0.633,0.094-0.95,0.095
		c-2.313,0.007-4.625,0.003-6.938,0.003c-3.083,0.001-6.166,0.002-9.25-0.001c-0.448,0-0.896-0.018-1.346-0.036
		c-0.225-0.009-0.484-0.235-0.555-0.465c-0.038-0.122-0.078-0.243-0.109-0.367c-0.391-1.559-0.731-3.125-0.852-4.733
		c-0.019-0.246-0.119-0.49-0.208-0.726c-0.056-0.146-0.195-0.185-0.317-0.106c-0.159,0.101-0.319,0.207-0.451,0.338
		c-3.366,3.341-7.441,5.441-11.944,6.754c-2.72,0.792-5.509,1.208-8.35,1.313c-1.992,0.073-3.98,0.05-5.969-0.035
		c-3.354-0.144-6.62-0.754-9.796-1.878c-7.271-2.575-11.167-8.67-12.284-14.207c-0.396-1.965-0.52-3.94-0.489-5.934
		c0.014-0.963,0.055-1.926,0.113-2.888c0.13-2.122,0.488-4.204,1.107-6.242c1.442-4.742,4.28-8.429,8.426-11.114
		c2.113-1.369,4.413-2.356,6.791-3.165c2.069-0.703,4.193-1.209,6.341-1.6c3.409-0.621,6.827-1.196,10.244-1.771
		c2.026-0.341,4.062-0.622,6.087-0.969c1.52-0.259,3.02-0.619,4.473-1.141c0.723-0.259,1.439-0.551,2.121-0.902
		c1.371-0.705,2.322-1.805,2.824-3.27c0.442-1.292,0.624-2.621,0.428-3.982c-0.25-1.729-1.066-3.14-2.432-4.235
		c-1.274-1.022-2.729-1.7-4.289-2.116c-2.814-0.752-5.687-0.991-8.589-0.691c-1.146,0.118-2.289,0.232-3.418,0.537
		c-2.669,0.72-4.751,2.187-6.222,4.532c-0.861,1.373-1.493,2.836-1.89,4.404c-0.142,0.56-0.285,1.119-0.452,1.671
		c-0.029,0.096-0.174,0.198-0.28,0.221c-0.249,0.051-0.507,0.075-0.761,0.075c-5.652,0.004-11.305,0.004-16.958,0
		c-0.255,0-0.523,0.001-0.76-0.077c-0.149-0.05-0.317-0.228-0.357-0.379c-0.063-0.241-0.055-0.513-0.027-0.765
		c0.25-2.298,0.465-4.6,1.054-6.847c0.374-1.43,0.803-2.841,1.386-4.198c1.778-4.137,4.612-7.376,8.4-9.788
		c2.456-1.563,5.123-2.664,7.909-3.468c2.969-0.856,6.001-1.393,9.086-1.596c1.858-0.122,3.718-0.226,5.578-0.294
		c2.701-0.1,5.397,0.111,8.078,0.38c4.172,0.418,8.234,1.33,12.066,3.1c3.751,1.731,6.898,4.192,9.229,7.643
		c1.637,2.424,2.732,5.084,3.439,7.904c0.703,2.808,1.14,5.654,1.267,8.558c0.088,1.99,0.137,3.978,0.137,5.969
		C432.118,142.666,432.117,148.961,432.117,155.256z M411.418,149.969c0.008,0,0.015,0,0.022,0c0-1.155,0.001-2.311-0.001-3.465
		c-0.001-0.32-0.009-0.642-0.017-0.962c-0.005-0.26-0.322-0.426-0.54-0.266c-1.793,1.322-3.857,2.017-5.983,2.53
		c-2.306,0.556-4.627,1.054-6.95,1.534c-2.137,0.442-4.256,0.945-6.333,1.616c-1.591,0.514-3.139,1.132-4.572,2.001
		c-1.815,1.1-3.158,2.614-3.857,4.641c-0.796,2.305-0.883,4.645-0.244,7.005c0.612,2.261,2.031,3.825,4.164,4.737
		c1.187,0.508,2.442,0.801,3.732,0.866c1.989,0.102,3.971,0.078,5.938-0.349c3.87-0.842,7.239-2.584,9.936-5.506
		c2.791-3.023,4.466-6.55,4.586-10.729C411.335,152.406,411.378,151.188,411.418,149.969z"/>
	<path fill-rule="evenodd" clip-rule="evenodd" fill="#FFFFFF" d="M120.475,143.9c0-12.266-0.005-24.531,0.004-36.797
		c0.002-2.372-0.313-2.183,2.136-2.185c5.137-0.003,10.274-0.002,15.412,0.001c0.513,0,1.027,0.012,1.54,0.027
		c0.266,0.008,0.512,0.227,0.519,0.459c0.016,0.513,0.029,1.025,0.03,1.539c0.005,2.761,0.005,5.522,0.017,8.283
		c0,0.099,0.083,0.249,0.163,0.278c0.085,0.032,0.262-0.016,0.315-0.09c0.261-0.364,0.474-0.763,0.74-1.122
		c0.726-0.979,1.422-1.986,2.214-2.909c3.235-3.769,7.289-6.238,12.101-7.445c1.743-0.438,3.507-0.782,5.31-0.885
		c0.705-0.04,1.407-0.13,2.112-0.174c4.143-0.257,8.212,0.167,12.163,1.458c5.622,1.838,9.861,5.369,12.709,10.564
		c1.753,3.197,2.76,6.609,3.097,10.24c0.149,1.603,0.197,3.201,0.197,4.807c-0.002,16.825-0.001,33.65-0.002,50.476
		c0,0.642-0.01,1.283-0.026,1.925c-0.007,0.33-0.276,0.585-0.617,0.596c-0.32,0.011-0.642,0.012-0.963,0.012
		c-5.844,0.001-11.688,0.001-17.532-0.001c-0.384,0-0.774,0.006-1.15-0.056c-0.148-0.023-0.362-0.21-0.381-0.347
		c-0.063-0.441-0.065-0.895-0.065-1.343c-0.004-3.854-0.002-7.706-0.002-11.56c0-10.981-0.004-21.962,0.003-32.943
		c0.001-2.059-0.103-4.107-0.349-6.15c-0.185-1.534-0.538-3.025-1.104-4.472c-0.814-2.082-2.244-3.55-4.267-4.476
		c-1.001-0.459-2.047-0.771-3.122-0.955c-3.26-0.56-6.519-0.574-9.752,0.196c-4.515,1.075-7.639,3.775-9.344,8.096
		c-0.688,1.741-1.11,3.559-1.28,5.417c-0.146,1.597-0.219,3.205-0.221,4.808c-0.016,13.807-0.006,27.613-0.012,41.421
		c-0.001,2.741,0.284,2.351-2.344,2.359c-5.522,0.019-11.045,0.007-16.568,0.002c-0.447,0-0.896-0.035-1.339-0.087
		c-0.099-0.012-0.209-0.15-0.264-0.257c-0.056-0.107-0.065-0.247-0.067-0.373c-0.008-0.578-0.009-1.156-0.009-1.734
		C120.475,168.304,120.475,156.102,120.475,143.9z"/>
	<path fill-rule="evenodd" clip-rule="evenodd" fill="#FFFFFF" d="M32.523,129.555c0,5.075,0.002,10.15-0.001,15.226
		c-0.001,2.449,0.221,4.873,0.799,7.258c0.38,1.568,0.943,3.065,1.736,4.472c1.332,2.362,3.21,4.147,5.657,5.331
		c2.105,1.019,4.336,1.582,6.651,1.819c1.92,0.197,3.848,0.186,5.776,0.122c1.604-0.054,3.209-0.101,4.814-0.142
		c0.343-0.009,0.588,0.25,0.609,0.597c0.008,0.128,0.019,0.256,0.022,0.384c0.004,0.192,0.003,0.386,0.003,0.578
		c0,5.396,0.001,10.793-0.002,16.188c0,0.385,0.005,0.774-0.059,1.15c-0.025,0.148-0.225,0.273-0.357,0.396
		c-0.04,0.037-0.119,0.04-0.181,0.044c-4.429,0.254-8.861,0.434-13.281-0.065c-4.744-0.535-9.363-1.602-13.723-3.61
		c-8.912-4.105-14.78-10.886-17.674-20.242c-1.281-4.143-1.799-8.402-1.798-12.73c0.001-11.114,0-22.229,0-33.342
		c0-0.578,0.002-1.156-0.014-1.734c-0.016-0.576-0.219-0.76-0.851-0.767c-0.835-0.01-1.67-0.005-2.505-0.007
		c-0.643-0.002-1.285,0.002-1.927-0.007c-0.491-0.006-0.737-0.225-0.753-0.656c-0.009-0.257-0.011-0.515-0.011-0.771
		c0-5.461-0.001-10.921,0.001-16.382c0-0.32,0.012-0.641,0.027-0.962c0.016-0.346,0.238-0.546,0.636-0.55
		c1.092-0.011,2.184-0.01,3.276-0.018c0.514-0.003,1.027-0.012,1.541-0.027c0.243-0.007,0.51-0.247,0.521-0.478
		c0.028-0.575,0.057-1.151,0.057-1.727c0.004-4.947-0.001-9.893,0.004-14.84c0.003-2.489-0.216-2.206,2.121-2.209
		c5.589-0.01,11.178-0.004,16.767-0.002c0.514,0,1.027,0.01,1.54,0.028c0.342,0.012,0.554,0.254,0.562,0.638
		c0.012,0.578,0.015,1.156,0.016,1.734c0.001,5.011,0,10.021,0.001,15.032c0,1.818-0.117,1.811,1.77,1.809
		c5.781-0.007,11.563-0.005,17.345,0.001c0.509,0,1.02,0.043,1.526,0.095c0.093,0.009,0.222,0.145,0.247,0.245
		c0.061,0.245,0.098,0.501,0.098,0.753c0.005,5.718,0.005,11.436,0.002,17.152c0,0.254-0.025,0.512-0.072,0.762
		c-0.038,0.202-0.203,0.332-0.402,0.342c-0.577,0.025-1.154,0.035-1.731,0.036c-5.46,0.002-10.921,0.001-16.381,0.002
		c-0.514,0-1.028-0.004-1.542,0.006c-0.64,0.012-0.838,0.188-0.851,0.76c-0.012,0.514-0.009,1.027-0.009,1.541
		C32.523,118.377,32.523,123.966,32.523,129.555z"/>
	<path fill-rule="evenodd" clip-rule="evenodd" fill="#8FCC18" d="M490.64,117.321c-1.155,0-2.312,0.027-3.467-0.006
		c-3.603-0.103-7.167-0.507-10.651-1.468c-2.112-0.583-4.135-1.392-6.039-2.481c-4.303-2.461-7.271-6.03-8.903-10.713
		c-0.98-2.813-1.458-5.718-1.552-8.685c-0.079-2.504-0.004-5.003,0.283-7.499c0.227-1.976,0.326-3.965,0.496-5.948
		c0.198-2.301,0.417-4.601,0.617-6.902c0.161-1.854,0.312-3.709,0.459-5.565c0.174-2.175,0.338-4.351,0.51-6.525
		c0.025-0.32,0.04-0.644,0.104-0.957c0.279-1.383-0.022-1.401,1.695-1.895c7.768-2.235,15.524-4.509,23.286-6.766
		c9.548-2.777,19.096-5.553,28.644-8.326c0.308-0.09,0.621-0.162,0.934-0.229c0.614-0.131,0.877,0.121,0.711,0.698
		c-0.887,3.082-1.779,6.163-2.675,9.243c-3.741,12.875-7.485,25.749-11.226,38.623c-2.309,7.947-4.612,15.895-6.921,23.842
		c-0.089,0.308-0.197,0.61-0.302,0.913c-0.188,0.553-0.358,0.686-0.995,0.688c-1.669,0.008-3.338,0.002-5.008,0.002
		C490.64,117.352,490.64,117.336,490.64,117.321z"/>
	<path fill-rule="evenodd" clip-rule="evenodd" fill="#FFFFFF" d="M68.78,143.937c0-12.27-0.003-24.539,0.002-36.81
		c0.001-2.434-0.262-2.195,2.12-2.199c5.075-0.008,10.15-0.004,15.225,0c0.513,0,1.026,0.029,1.539,0.044
		c0.125,0.003,0.4,0.243,0.404,0.354c0.015,0.449,0.036,0.898,0.037,1.348c0.005,2.184,0.003,4.368,0.013,6.553
		c0,0.103,0.088,0.208,0.142,0.309c0.065,0.122,0.317,0.021,0.472-0.194c0.113-0.156,0.215-0.32,0.329-0.475
		c0.267-0.363,0.532-0.726,0.807-1.081c3.66-4.754,8.5-7.525,14.377-8.554c2.114-0.139,4.227-0.341,6.343-0.402
		c2.717-0.08,3.124-0.02,3.202,0.214c0.335,0.995,0.154,2.028,0.158,3.043c0.021,5.396,0.012,10.792,0.005,16.188
		c0,0.443-0.054,0.889-0.114,1.329c-0.011,0.084-0.16,0.183-0.262,0.212c-0.116,0.032-0.254,0.006-0.38-0.015
		c-2.553-0.415-5.123-0.396-7.689-0.238c-2.188,0.135-4.317,0.592-6.369,1.396c-4.07,1.593-6.829,4.461-8.356,8.532
		c-0.611,1.629-1.022,3.316-1.162,5.051c-0.134,1.663-0.257,3.332-0.26,4.999c-0.021,12.334-0.011,24.667-0.013,37.001
		c0,0.642-0.022,1.283-0.042,1.924c-0.007,0.24-0.249,0.457-0.504,0.472c-0.192,0.01-0.385,0.022-0.577,0.022
		c-6.103,0.002-12.206,0.002-18.308,0.002c-0.129,0-0.257-0.002-0.386-0.006c-0.496-0.018-0.73-0.222-0.74-0.666
		c-0.011-0.514-0.012-1.028-0.012-1.542C68.78,168.476,68.78,156.206,68.78,143.937z"/>
	<path fill-rule="evenodd" clip-rule="evenodd" fill="#8FCC18" d="M445.113,31.612c-0.182,2.302-0.349,4.604-0.546,6.905
		c-0.208,2.429-0.441,4.855-0.671,7.282c-0.032,0.337-0.191,0.6-0.545,0.706c-1.167,0.351-2.329,0.718-3.499,1.057
		c-5.973,1.731-11.948,3.454-17.921,5.184c-10.16,2.943-20.318,5.891-30.477,8.839c-1.108,0.322-2.211,0.665-3.319,0.988
		c-0.244,0.071-0.5,0.112-0.754,0.141c-0.269,0.03-0.496-0.075-0.681-0.276c-0.704-0.767-1.225-1.656-1.603-2.612
		c-1.711-4.327-1.274-8.418,1.457-12.213c1.272-1.77,3.018-2.945,5.017-3.757c0.474-0.193,0.969-0.336,1.461-0.479
		c8.435-2.45,16.871-4.892,25.305-7.343c8.496-2.47,16.988-4.949,25.484-7.418c0.364-0.106,0.745-0.156,1.12-0.224
		c0.14-0.025,0.394,0.203,0.386,0.345c-0.056,0.959-0.115,1.919-0.173,2.878C445.141,31.614,445.127,31.613,445.113,31.612z"/>
	<path fill-rule="evenodd" clip-rule="evenodd" fill="#8FCC18" d="M523.904,21.14c0,0.277,0.003,0.47,0,0.662
		c-0.02,1.302-0.285,1.396-1.376,1.71c-4.686,1.349-9.36,2.73-14.043,4.091c-5.481,1.594-10.968,3.176-16.451,4.769
		c-8.87,2.576-17.74,5.157-26.61,7.733c-0.243,0.07-0.496,0.106-0.744,0.159c-0.152,0.032-0.379-0.177-0.372-0.347
		c0.025-0.577,0.04-1.155,0.088-1.73c0.243-2.941,0.488-5.882,0.747-8.822c0.186-2.11,0.415-4.216,0.581-6.327
		c0.05-0.63,0.381-0.906,0.919-1.063c1.479-0.429,2.956-0.862,4.435-1.292c6.037-1.754,12.074-3.506,18.111-5.261
		c6.283-1.826,12.567-3.647,18.847-5.486c1.116-0.327,2.253-0.528,3.402-0.631c1.29-0.115,2.561,0.118,3.799,0.467
		c4.332,1.219,7.704,4.955,8.464,9.35C523.821,19.82,523.952,20.513,523.904,21.14z"/>
	<path fill-rule="evenodd" clip-rule="evenodd" fill="#8FCC18" d="M442.213,65.934c-0.185,2.23-0.338,4.083-0.493,5.935
		c-0.059,0.702-0.124,1.404-0.187,2.106c-0.221,2.49-0.471,4.978-0.657,7.471c-0.313,4.219-0.842,8.427-0.728,12.67
		c0.037,1.345,0.098,2.69,0.139,4.035c0.002,0.035-0.083,0.081-0.136,0.105c-0.052,0.024-0.14,0.056-0.166,0.032
		c-0.284-0.254-0.579-0.5-0.836-0.781c-1.945-2.134-3.968-4.193-6.057-6.185c-6.247-5.958-13.124-11.082-20.55-15.475
		c-0.659-0.39-1.308-0.802-1.945-1.226c-0.126-0.084-0.094-0.256,0.022-0.301c0.417-0.161,0.834-0.328,1.263-0.453
		c6.892-2.008,13.785-4.011,20.678-6.014c2.707-0.787,5.414-1.577,8.123-2.358c0.369-0.106,0.748-0.175,1.123-0.257
		c0.158-0.035,0.404,0.154,0.406,0.307C442.215,65.802,442.213,66.058,442.213,65.934z"/>
	<path fill-rule="evenodd" clip-rule="evenodd" fill="#8FCC18" d="M477.33,152.842c-5.405-0.151-9.576-2.979-11.315-7.651
		c-0.38-1.022-0.704-2.063-1.063-3.094c-1.41-4.061-2.994-8.054-4.745-11.98c-0.156-0.35-0.3-0.706-0.453-1.058
		c-0.063-0.146-0.041-0.274,0.104-0.328c0.105-0.039,0.247-0.054,0.349-0.016c0.24,0.089,0.467,0.213,0.695,0.329
		c4.262,2.163,8.763,3.618,13.436,4.574c3.716,0.761,7.461,1.248,11.259,1.317c1.729,0.03,3.459,0.128,5.188,0.198
		c0.17,0.007,0.358,0.244,0.329,0.395c-0.037,0.187-0.066,0.376-0.116,0.56c-0.169,0.618-0.341,1.236-0.521,1.852
		c-0.592,2.031-1.169,4.067-1.79,6.09c-0.244,0.793-0.531,1.584-0.898,2.326c-1.611,3.252-4.248,5.238-7.74,6.107
		C479.052,152.71,478.038,152.906,477.33,152.842z"/>

</g>
</svg>
